<svg version="1.1" xmlns="http://www.w3.org/2000/svg" viewBox="0 0 687.7106183412119 676.6881805716982" width="687.7106183412119" height="676.6881805716982">
  <!-- svg-source:excalidraw -->
  
  <defs>
    <style class="style-fonts">
      @font-face {
        font-family: "Virgil";
        src: url("https://excalidraw.com/Virgil.woff2");
      }
      @font-face {
        font-family: "Cascadia";
        src: url("https://excalidraw.com/Cascadia.woff2");
      }
    </style>
  </defs>
  <rect x="0" y="0" width="687.7106183412119" height="676.6881805716982" fill="#222129"></rect><g stroke-linecap="round" transform="translate(22.571695215469845 10) rotate(0 162.7286996003947 138.84563174859525)"><path d="M32 0 M32 0 C131.82 0, 231.65 0, 293.46 0 M32 0 C107.86 0, 183.72 0, 293.46 0 M293.46 0 C314.79 0, 325.46 10.67, 325.46 32 M293.46 0 C314.79 0, 325.46 10.67, 325.46 32 M325.46 32 C325.46 91.19, 325.46 150.37, 325.46 245.69 M325.46 32 C325.46 110.44, 325.46 188.88, 325.46 245.69 M325.46 245.69 C325.46 267.02, 314.79 277.69, 293.46 277.69 M325.46 245.69 C325.46 267.02, 314.79 277.69, 293.46 277.69 M293.46 277.69 C200.92 277.69, 108.39 277.69, 32 277.69 M293.46 277.69 C236.82 277.69, 180.18 277.69, 32 277.69 M32 277.69 C10.67 277.69, 0 267.02, 0 245.69 M32 277.69 C10.67 277.69, 0 267.02, 0 245.69 M0 245.69 C0 180.31, 0 114.93, 0 32 M0 245.69 C0 178.37, 0 111.05, 0 32 M0 32 C0 10.67, 10.67 0, 32 0 M0 32 C0 10.67, 10.67 0, 32 0" stroke="#1971c2" stroke-width="1" fill="none"></path></g><g transform="translate(40.77880626194349 29.35740655703296) rotate(0 54.95000076293945 16.080873192057766)"><text x="0" y="0" font-family="Cascadia, Segoe UI Emoji" font-size="26.801455320096277px" fill="#1971c2" text-anchor="start" style="white-space: pre;" direction="ltr" dominant-baseline="text-before-edge">Routing</text></g><g transform="translate(143.31439001632322 81.01644327380927) rotate(335.6411147039362 19.850000381469727 13.56103170687254)"><text x="0" y="0" font-family="Cascadia, Segoe UI Emoji" font-size="11.300859755727108px" fill="#ffffff" text-anchor="start" style="white-space: pre;" direction="ltr" dominant-baseline="text-before-edge">type</text><text x="0" y="13.56103170687253" font-family="Cascadia, Segoe UI Emoji" font-size="11.300859755727108px" fill="#ffffff" text-anchor="start" style="white-space: pre;" direction="ltr" dominant-baseline="text-before-edge">mapper</text></g><g transform="translate(223.49331960464667 28.900510578358876) rotate(0 30.391666412353516 17.783329941812042)"><text x="0" y="0" font-family="Cascadia, Segoe UI Emoji" font-size="14.819441618176688px" fill="#1971c2" text-anchor="start" style="white-space: pre;" direction="ltr" dominant-baseline="text-before-edge">Routing</text><text x="0" y="17.783329941812024" font-family="Cascadia, Segoe UI Emoji" font-size="14.819441618176688px" fill="#1971c2" text-anchor="start" style="white-space: pre;" direction="ltr" dominant-baseline="text-before-edge">schemas</text></g><g stroke-linecap="round" transform="translate(292.8840680157757 26.477190637567787) rotate(0 20.07796890591925 19.43029248959931)"><path d="M9.72 0 L30.44 0 L34.69 0.61 L37.73 2.43 L39.55 5.46 L40.16 9.72 L40.16 29.15 L39.55 33.4 L37.73 36.43 L34.69 38.25 L30.44 38.86 L9.72 38.86 L5.46 38.25 L2.43 36.43 L0.61 33.4 L0 29.15 L0.61 5.46 L2.43 2.43 L5.46 0.61 L9.72 0" stroke="none" stroke-width="0" fill="#222129"></path><path d="M9.72 0 M9.72 0 C15.14 0, 20.56 0, 30.44 0 M9.72 0 C17.38 0, 25.04 0, 30.44 0 M30.44 0 C36.92 0, 40.16 3.24, 40.16 9.72 M30.44 0 C36.92 0, 40.16 3.24, 40.16 9.72 M40.16 9.72 C40.16 14.72, 40.16 19.73, 40.16 29.15 M40.16 9.72 C40.16 15.96, 40.16 22.2, 40.16 29.15 M40.16 29.15 C40.16 35.62, 36.92 38.86, 30.44 38.86 M40.16 29.15 C40.16 35.62, 36.92 38.86, 30.44 38.86 M30.44 38.86 C26.14 38.86, 21.85 38.86, 9.72 38.86 M30.44 38.86 C24.88 38.86, 19.32 38.86, 9.72 38.86 M9.72 38.86 C3.24 38.86, 0 35.62, 0 29.15 M9.72 38.86 C3.24 38.86, 0 35.62, 0 29.15 M0 29.15 C0 22.33, 0 15.51, 0 9.72 M0 29.15 C0 22.78, 0 16.41, 0 9.72 M0 9.72 C0 3.24, 3.24 0, 9.72 0 M0 9.72 C0 3.24, 3.24 0, 9.72 0" stroke="#1971c2" stroke-width="4" fill="none"></path></g><g stroke-linecap="round" transform="translate(77.81324863176371 97.48874773227976) rotate(0 20.07796890591925 19.43029248959931)"><path d="M9.72 0 L30.44 0 L34.69 0.61 L37.73 2.43 L39.55 5.46 L40.16 9.72 L40.16 29.15 L39.55 33.4 L37.73 36.43 L34.69 38.25 L30.44 38.86 L9.72 38.86 L5.46 38.25 L2.43 36.43 L0.61 33.4 L0 29.15 L0.61 5.46 L2.43 2.43 L5.46 0.61 L9.72 0" stroke="none" stroke-width="0" fill="#222129"></path><path d="M9.72 0 M9.72 0 C16.55 0, 23.39 0, 30.44 0 M9.72 0 C14.39 0, 19.06 0, 30.44 0 M30.44 0 C36.92 0, 40.16 3.24, 40.16 9.72 M30.44 0 C36.92 0, 40.16 3.24, 40.16 9.72 M40.16 9.72 C40.16 15.79, 40.16 21.87, 40.16 29.15 M40.16 9.72 C40.16 16.76, 40.16 23.81, 40.16 29.15 M40.16 29.15 C40.16 35.62, 36.92 38.86, 30.44 38.86 M40.16 29.15 C40.16 35.62, 36.92 38.86, 30.44 38.86 M30.44 38.86 C22.69 38.86, 14.95 38.86, 9.72 38.86 M30.44 38.86 C24.72 38.86, 18.99 38.86, 9.72 38.86 M9.72 38.86 C3.24 38.86, 0 35.62, 0 29.15 M9.72 38.86 C3.24 38.86, 0 35.62, 0 29.15 M0 29.15 C0 22.74, 0 16.33, 0 9.72 M0 29.15 C0 24.92, 0 20.7, 0 9.72 M0 9.72 C0 3.24, 3.24 0, 9.72 0 M0 9.72 C0 3.24, 3.24 0, 9.72 0" stroke="#1971c2" stroke-width="4" fill="none"></path></g><g stroke-linecap="round" transform="translate(200.4399834550129 95.05996117107975) rotate(0 23.07347233139916 23.07347233139916)"><path d="M30 6 M30 6 C32.54 9.01, 35.08 12.01, 40.15 18 M30 6 C33.87 10.57, 37.73 15.15, 40.15 18 M40.15 18 C46.15 24, 46.15 24, 40.15 30 M40.15 18 C46.15 24, 46.15 24, 40.15 30 M40.15 30 C36.5 33.65, 32.85 37.29, 30 40.15 M40.15 30 C37.54 32.61, 34.93 35.22, 30 40.15 M30 40.15 C24 46.15, 24 46.15, 18 40.15 M30 40.15 C24 46.15, 24 46.15, 18 40.15 M18 40.15 C13.84 36.63, 9.68 33.11, 6 30 M18 40.15 C15.13 37.72, 12.27 35.3, 6 30 M6 30 C0 24, 0 24, 6 18 M6 30 C0 24, 0 24, 6 18 M6 18 C8.51 15.49, 11.01 12.99, 18 6 M6 18 C8.99 15.01, 11.98 12.02, 18 6 M18 6 C24 0, 24 0, 30 6 M18 6 C24 0, 24 0, 30 6" stroke="#2f9e44" stroke-width="4" fill="none"></path></g><g transform="translate(43.45409606426625 155.11556844003394) rotate(0 117.75000000000003 16.080873192057766)"><text x="0" y="0" font-family="Cascadia, Segoe UI Emoji" font-size="26.801455320096277px" fill="#2f9e44" text-anchor="start" style="white-space: pre;" direction="ltr" dominant-baseline="text-before-edge">svc_logic(    )</text></g><g stroke-linecap="round" transform="translate(212.9366158027384 153.83894058042972) rotate(0 17.406303688599422 17.406303688599422)"><path d="M22.5 4.5 M22.5 4.5 C25.21 7.63, 27.93 10.75, 30.31 13.5 M22.5 4.5 C24.13 6.38, 25.76 8.25, 30.31 13.5 M30.31 13.5 C34.81 18, 34.81 18, 30.31 22.5 M30.31 13.5 C34.81 18, 34.81 18, 30.31 22.5 M30.31 22.5 C27.92 24.89, 25.53 27.29, 22.5 30.31 M30.31 22.5 C28.53 24.29, 26.74 26.07, 22.5 30.31 M22.5 30.31 C18 34.81, 18 34.81, 13.5 30.31 M22.5 30.31 C18 34.81, 18 34.81, 13.5 30.31 M13.5 30.31 C10.24 27.48, 6.99 24.66, 4.5 22.5 M13.5 30.31 C10.08 27.35, 6.67 24.38, 4.5 22.5 M4.5 22.5 C0 18, 0 18, 4.5 13.5 M4.5 22.5 C0 18, 0 18, 4.5 13.5 M4.5 13.5 C7.03 10.97, 9.56 8.44, 13.5 4.5 M4.5 13.5 C7.1 10.9, 9.69 8.31, 13.5 4.5 M13.5 4.5 C18 0, 18 0, 22.5 4.5 M13.5 4.5 C18 0, 18 0, 22.5 4.5" stroke="#2f9e44" stroke-width="4" fill="none"></path></g><g stroke-linecap="round"><g transform="translate(135.5607633941254 118.85712270684189) rotate(0 26.84999025175847 0)"><path d="M0 0 C8.95 0, 44.75 0, 53.7 0 M0 0 C8.95 0, 44.75 0, 53.7 0" stroke="#ffffff" stroke-width="2" fill="none"></path></g><g transform="translate(135.5607633941254 118.85712270684189) rotate(0 26.84999025175847 0)"><path d="M53.7 0 L40.11 6.34 L40.11 -6.34 L53.7 0" stroke="none" stroke-width="0" fill="#ffffff" fill-rule="evenodd"></path><path d="M53.7 0 C49.4 2.01, 45.09 4.01, 40.11 6.34 M53.7 0 C48.3 2.52, 42.9 5.04, 40.11 6.34 M40.11 6.34 C40.11 2.21, 40.11 -1.92, 40.11 -6.34 M40.11 6.34 C40.11 3.76, 40.11 1.19, 40.11 -6.34 M40.11 -6.34 C44.27 -4.4, 48.43 -2.46, 53.7 0 M40.11 -6.34 C44.7 -4.19, 49.3 -2.05, 53.7 0 M53.7 0 C53.7 0, 53.7 0, 53.7 0 M53.7 0 C53.7 0, 53.7 0, 53.7 0" stroke="#ffffff" stroke-width="2" fill="none"></path></g></g><mask></mask><g stroke-linecap="round" transform="translate(154.550240472582 217.81197447510237) rotate(0 156.65673319739466 138.84563174859525)"><path d="M32 0 L281.31 0 L288.81 0.5 L295.31 2 L300.81 4.5 L305.31 8 L308.81 12.5 L311.31 18 L312.81 24.5 L313.31 32 L313.31 245.69 L312.81 253.19 L311.31 259.69 L308.81 265.19 L305.31 269.69 L300.81 273.19 L295.31 275.69 L288.81 277.19 L281.31 277.69 L32 277.69 L24.5 277.19 L18 275.69 L12.5 273.19 L8 269.69 L4.5 265.19 L2 259.69 L0.5 253.19 L0 245.69 L0.5 24.5 L2 18 L4.5 12.5 L8 8 L12.5 4.5 L18 2 L24.5 0.5 L32 0" stroke="none" stroke-width="0" fill="#222129"></path><path d="M32 0 M32 0 C127.63 0, 223.25 0, 281.31 0 M32 0 C121.58 0, 211.15 0, 281.31 0 M281.31 0 C302.65 0, 313.31 10.67, 313.31 32 M281.31 0 C302.65 0, 313.31 10.67, 313.31 32 M313.31 32 C313.31 84.54, 313.31 137.08, 313.31 245.69 M313.31 32 C313.31 84.7, 313.31 137.4, 313.31 245.69 M313.31 245.69 C313.31 267.02, 302.65 277.69, 281.31 277.69 M313.31 245.69 C313.31 267.02, 302.65 277.69, 281.31 277.69 M281.31 277.69 C206.06 277.69, 130.8 277.69, 32 277.69 M281.31 277.69 C227.12 277.69, 172.92 277.69, 32 277.69 M32 277.69 C10.67 277.69, 0 267.02, 0 245.69 M32 277.69 C10.67 277.69, 0 267.02, 0 245.69 M0 245.69 C0 199.06, 0 152.43, 0 32 M0 245.69 C0 160.35, 0 75.01, 0 32 M0 32 C0 10.67, 10.67 0, 32 0 M0 32 C0 10.67, 10.67 0, 32 0" stroke="#099268" stroke-width="1" fill="none"></path></g><g transform="translate(338.2006816847295 235.76805090874615) rotate(0 30.391666412353516 17.783329941812013)"><text x="0" y="0" font-family="Cascadia, Segoe UI Emoji" font-size="14.819441618176688px" fill="#2f9e44" text-anchor="start" style="white-space: pre;" direction="ltr" dominant-baseline="text-before-edge">Service</text><text x="0" y="17.783329941812024" font-family="Cascadia, Segoe UI Emoji" font-size="14.819441618176688px" fill="#2f9e44" text-anchor="start" style="white-space: pre;" direction="ltr" dominant-baseline="text-before-edge">schemas</text></g><g transform="translate(166.28058735585591 238.78857207293527) rotate(0 54.95000076293945 16.080873192057766)"><text x="0" y="0" font-family="Cascadia, Segoe UI Emoji" font-size="26.801455320096277px" fill="#099268" text-anchor="start" style="white-space: pre;" direction="ltr" dominant-baseline="text-before-edge">Service</text></g><g transform="translate(270.39808971631055 262.44101853463513) rotate(335.6411147039362 19.850000381469727 13.56103170687254)"><text x="0" y="0" font-family="Cascadia, Segoe UI Emoji" font-size="11.300859755727108px" fill="#ffffff" text-anchor="start" style="white-space: pre;" direction="ltr" dominant-baseline="text-before-edge">type</text><text x="0" y="13.56103170687253" font-family="Cascadia, Segoe UI Emoji" font-size="11.300859755727108px" fill="#ffffff" text-anchor="start" style="white-space: pre;" direction="ltr" dominant-baseline="text-before-edge">mapper</text></g><g stroke-linecap="round" transform="translate(406.0954122557106 231.33606326063875) rotate(0 23.07347233139916 23.07347233139916)"><path d="M30 6 M30 6 C32.67 9.16, 35.35 12.32, 40.15 18 M30 6 C32.09 8.47, 34.18 10.94, 40.15 18 M40.15 18 C46.15 24, 46.15 24, 40.15 30 M40.15 18 C46.15 24, 46.15 24, 40.15 30 M40.15 30 C37.12 33.03, 34.09 36.05, 30 40.15 M40.15 30 C37.14 33.01, 34.12 36.02, 30 40.15 M30 40.15 C24 46.15, 24 46.15, 18 40.15 M30 40.15 C24 46.15, 24 46.15, 18 40.15 M18 40.15 C15.21 37.79, 12.42 35.43, 6 30 M18 40.15 C15.14 37.73, 12.29 35.32, 6 30 M6 30 C0 24, 0 24, 6 18 M6 30 C0 24, 0 24, 6 18 M6 18 C9.32 14.68, 12.64 11.36, 18 6 M6 18 C9.25 14.75, 12.51 11.49, 18 6 M18 6 C24 0, 24 0, 30 6 M18 6 C24 0, 24 0, 30 6" stroke="#2f9e44" stroke-width="4" fill="none"></path></g><g stroke-linecap="round" transform="translate(224.585081335033 279.8766572600261) rotate(0 16.96580566497954 16.965805664979513)"><path d="M21.25 4.25 M21.25 4.25 C24.39 7.41, 27.53 10.58, 29.68 12.75 M21.25 4.25 C24.05 7.07, 26.84 9.89, 29.68 12.75 M29.68 12.75 C33.93 17, 33.93 17, 29.68 21.25 M29.68 12.75 C33.93 17, 33.93 17, 29.68 21.25 M29.68 21.25 C27.64 23.29, 25.61 25.33, 21.25 29.68 M29.68 21.25 C27.35 23.58, 25.02 25.91, 21.25 29.68 M21.25 29.68 C17 33.93, 17 33.93, 12.75 29.68 M21.25 29.68 C17 33.93, 17 33.93, 12.75 29.68 M12.75 29.68 C10.64 27.59, 8.53 25.5, 4.25 21.25 M12.75 29.68 C11.04 27.99, 9.33 26.29, 4.25 21.25 M4.25 21.25 C0 17, 0 17, 4.25 12.75 M4.25 21.25 C0 17, 0 17, 4.25 12.75 M4.25 12.75 C7.51 9.49, 10.76 6.24, 12.75 4.25 M4.25 12.75 C7.5 9.5, 10.75 6.25, 12.75 4.25 M12.75 4.25 C17 0, 17 0, 21.25 4.25 M12.75 4.25 C17 0, 17 0, 21.25 4.25" stroke="#2f9e44" stroke-width="4" fill="none"></path></g><g stroke-linecap="round" transform="translate(318.4694619709394 281.6625315405502) rotate(0 15.179931384455472 15.179931384455443)"><path d="M30.36 15.18 C30.36 16.06, 30.28 16.95, 30.13 17.82 C29.98 18.68, 29.74 19.55, 29.44 20.37 C29.14 21.2, 28.77 22.01, 28.33 22.77 C27.89 23.53, 27.37 24.26, 26.81 24.94 C26.24 25.61, 25.61 26.24, 24.94 26.81 C24.26 27.37, 23.53 27.89, 22.77 28.33 C22.01 28.77, 21.2 29.14, 20.37 29.44 C19.55 29.74, 18.68 29.98, 17.82 30.13 C16.95 30.28, 16.06 30.36, 15.18 30.36 C14.3 30.36, 13.41 30.28, 12.54 30.13 C11.68 29.98, 10.81 29.74, 9.99 29.44 C9.16 29.14, 8.35 28.77, 7.59 28.33 C6.83 27.89, 6.1 27.37, 5.42 26.81 C4.75 26.24, 4.12 25.61, 3.55 24.94 C2.99 24.26, 2.47 23.53, 2.03 22.77 C1.59 22.01, 1.22 21.2, 0.92 20.37 C0.61 19.55, 0.38 18.68, 0.23 17.82 C0.08 16.95, 0 16.06, 0 15.18 C0 14.3, 0.08 13.41, 0.23 12.54 C0.38 11.68, 0.61 10.81, 0.92 9.99 C1.22 9.16, 1.59 8.35, 2.03 7.59 C2.47 6.83, 2.99 6.1, 3.55 5.42 C4.12 4.75, 4.75 4.12, 5.42 3.55 C6.1 2.99, 6.83 2.47, 7.59 2.03 C8.35 1.59, 9.16 1.22, 9.99 0.92 C10.81 0.61, 11.68 0.38, 12.54 0.23 C13.41 0.08, 14.3 0, 15.18 0 C16.06 0, 16.95 0.08, 17.82 0.23 C18.68 0.38, 19.55 0.61, 20.37 0.92 C21.2 1.22, 22.01 1.59, 22.77 2.03 C23.53 2.47, 24.26 2.99, 24.94 3.55 C25.61 4.12, 26.24 4.75, 26.81 5.42 C27.37 6.1, 27.89 6.83, 28.33 7.59 C28.77 8.35, 29.14 9.16, 29.44 9.99 C29.74 10.81, 29.98 11.68, 30.13 12.54 C30.28 13.41, 30.32 14.74, 30.36 15.18 C30.4 15.62, 30.4 14.74, 30.36 15.18" stroke="none" stroke-width="0" fill="#222129"></path><path d="M30.36 15.18 C30.36 16.06, 30.28 16.95, 30.13 17.82 C29.98 18.68, 29.74 19.55, 29.44 20.37 C29.14 21.2, 28.77 22.01, 28.33 22.77 C27.89 23.53, 27.37 24.26, 26.81 24.94 C26.24 25.61, 25.61 26.24, 24.94 26.81 C24.26 27.37, 23.53 27.89, 22.77 28.33 C22.01 28.77, 21.2 29.14, 20.37 29.44 C19.55 29.74, 18.68 29.98, 17.82 30.13 C16.95 30.28, 16.06 30.36, 15.18 30.36 C14.3 30.36, 13.41 30.28, 12.54 30.13 C11.68 29.98, 10.81 29.74, 9.99 29.44 C9.16 29.14, 8.35 28.77, 7.59 28.33 C6.83 27.89, 6.1 27.37, 5.42 26.81 C4.75 26.24, 4.12 25.61, 3.55 24.94 C2.99 24.26, 2.47 23.53, 2.03 22.77 C1.59 22.01, 1.22 21.2, 0.92 20.37 C0.61 19.55, 0.38 18.68, 0.23 17.82 C0.08 16.95, 0 16.06, 0 15.18 C0 14.3, 0.08 13.41, 0.23 12.54 C0.38 11.68, 0.61 10.81, 0.92 9.99 C1.22 9.16, 1.59 8.35, 2.03 7.59 C2.47 6.83, 2.99 6.1, 3.55 5.42 C4.12 4.75, 4.75 4.12, 5.42 3.55 C6.1 2.99, 6.83 2.47, 7.59 2.03 C8.35 1.59, 9.16 1.22, 9.99 0.92 C10.81 0.61, 11.68 0.38, 12.54 0.23 C13.41 0.08, 14.3 0, 15.18 0 C16.06 0, 16.95 0.08, 17.82 0.23 C18.68 0.38, 19.55 0.61, 20.37 0.92 C21.2 1.22, 22.01 1.59, 22.77 2.03 C23.53 2.47, 24.26 2.99, 24.94 3.55 C25.61 4.12, 26.24 4.75, 26.81 5.42 C27.37 6.1, 27.89 6.83, 28.33 7.59 C28.77 8.35, 29.14 9.16, 29.44 9.99 C29.74 10.81, 29.98 11.68, 30.13 12.54 C30.28 13.41, 30.32 14.74, 30.36 15.18 C30.4 15.62, 30.4 14.74, 30.36 15.18" stroke="#9c36b5" stroke-width="4" fill="none"></path></g><g stroke-linecap="round"><g transform="translate(271.688055390406 297.2411055062674) rotate(0 19.56482261426879 0)"><path d="M0 0 C6.52 0, 32.61 0, 39.13 0 M0 0 C6.52 0, 32.61 0, 39.13 0" stroke="#ffffff" stroke-width="2" fill="none"></path></g><g transform="translate(271.688055390406 297.2411055062674) rotate(0 19.56482261426879 0)"><path d="M39.13 0 L25.54 6.34 L25.54 -6.34 L39.13 0" stroke="none" stroke-width="0" fill="#ffffff" fill-rule="evenodd"></path><path d="M39.13 0 C34.53 2.15, 29.93 4.29, 25.54 6.34 M39.13 0 C34.57 2.13, 30.01 4.25, 25.54 6.34 M25.54 6.34 C25.54 2.48, 25.54 -1.37, 25.54 -6.34 M25.54 6.34 C25.54 3.29, 25.54 0.24, 25.54 -6.34 M25.54 -6.34 C29.1 -4.68, 32.67 -3.01, 39.13 0 M25.54 -6.34 C28.82 -4.81, 32.1 -3.28, 39.13 0 M39.13 0 C39.13 0, 39.13 0, 39.13 0 M39.13 0 C39.13 0, 39.13 0, 39.13 0" stroke="#ffffff" stroke-width="2" fill="none"></path></g></g><mask></mask><g stroke-linecap="round" transform="translate(224.9379181769017 321.4491912320919) rotate(0 16.96580566497954 16.965805664979513)"><path d="M21.25 4.25 M21.25 4.25 C23.77 6.79, 26.28 9.32, 29.68 12.75 M21.25 4.25 C24.41 7.43, 27.56 10.61, 29.68 12.75 M29.68 12.75 C33.93 17, 33.93 17, 29.68 21.25 M29.68 12.75 C33.93 17, 33.93 17, 29.68 21.25 M29.68 21.25 C27.7 23.24, 25.71 25.22, 21.25 29.68 M29.68 21.25 C27.08 23.85, 24.49 26.45, 21.25 29.68 M21.25 29.68 C17 33.93, 17 33.93, 12.75 29.68 M21.25 29.68 C17 33.93, 17 33.93, 12.75 29.68 M12.75 29.68 C9.86 26.81, 6.97 23.94, 4.25 21.25 M12.75 29.68 C10.7 27.65, 8.65 25.62, 4.25 21.25 M4.25 21.25 C0 17, 0 17, 4.25 12.75 M4.25 21.25 C0 17, 0 17, 4.25 12.75 M4.25 12.75 C7.01 9.99, 9.76 7.24, 12.75 4.25 M4.25 12.75 C6.19 10.81, 8.13 8.87, 12.75 4.25 M12.75 4.25 C17 0, 17 0, 21.25 4.25 M12.75 4.25 C17 0, 17 0, 21.25 4.25" stroke="#2f9e44" stroke-width="4" fill="none"></path></g><g stroke-linecap="round"><g transform="translate(272.0408922322747 338.8136394783332) rotate(0 19.564822614268735 0)"><path d="M0 0 C6.52 0, 32.61 0, 39.13 0 M0 0 C6.52 0, 32.61 0, 39.13 0" stroke="#ffffff" stroke-width="2" fill="none"></path></g><g transform="translate(272.0408922322747 338.8136394783332) rotate(0 19.564822614268735 0)"><path d="M39.13 0 L25.54 6.34 L25.54 -6.34 L39.13 0" stroke="none" stroke-width="0" fill="#ffffff" fill-rule="evenodd"></path><path d="M39.13 0 C35.28 1.79, 31.43 3.59, 25.54 6.34 M39.13 0 C35.72 1.59, 32.3 3.18, 25.54 6.34 M25.54 6.34 C25.54 1.27, 25.54 -3.79, 25.54 -6.34 M25.54 6.34 C25.54 3.55, 25.54 0.76, 25.54 -6.34 M25.54 -6.34 C28.42 -4.99, 31.31 -3.65, 39.13 0 M25.54 -6.34 C28.67 -4.88, 31.8 -3.42, 39.13 0 M39.13 0 C39.13 0, 39.13 0, 39.13 0 M39.13 0 C39.13 0, 39.13 0, 39.13 0" stroke="#ffffff" stroke-width="2" fill="none"></path></g></g><mask></mask><g transform="translate(178.31757304580935 374.48049942847507) rotate(0 125.5999984741211 16.080873192057766)"><text x="0" y="0" font-family="Cascadia, Segoe UI Emoji" font-size="26.801455320096277px" fill="#9c36b5" text-anchor="start" style="white-space: pre;" direction="ltr" dominant-baseline="text-before-edge">crud_logic(    )</text></g><g transform="translate(177.79339505512075 409.03691474008184) rotate(0 117.75 16.080873192057766)"><text x="0" y="0" font-family="Cascadia, Segoe UI Emoji" font-size="26.801455320096277px" fill="#c2255c" text-anchor="start" style="white-space: pre;" direction="ltr" dominant-baseline="text-before-edge">api_logic(    )</text></g><g stroke-linecap="round" transform="translate(366.5710336657037 377.4005839573226) rotate(0 13.763123846799601 13.763123846799601)"><path d="M27.53 13.76 C27.53 14.56, 27.46 15.37, 27.32 16.15 C27.18 16.94, 26.97 17.72, 26.7 18.47 C26.42 19.22, 26.08 19.95, 25.68 20.64 C25.28 21.33, 24.82 22, 24.31 22.61 C23.79 23.22, 23.22 23.79, 22.61 24.31 C22 24.82, 21.33 25.28, 20.64 25.68 C19.95 26.08, 19.22 26.42, 18.47 26.7 C17.72 26.97, 16.94 27.18, 16.15 27.32 C15.37 27.46, 14.56 27.53, 13.76 27.53 C12.97 27.53, 12.16 27.46, 11.37 27.32 C10.59 27.18, 9.8 26.97, 9.06 26.7 C8.31 26.42, 7.57 26.08, 6.88 25.68 C6.19 25.28, 5.53 24.82, 4.92 24.31 C4.31 23.79, 3.73 23.22, 3.22 22.61 C2.71 22, 2.24 21.33, 1.84 20.64 C1.45 19.95, 1.1 19.22, 0.83 18.47 C0.56 17.72, 0.35 16.94, 0.21 16.15 C0.07 15.37, 0 14.56, 0 13.76 C0 12.97, 0.07 12.16, 0.21 11.37 C0.35 10.59, 0.56 9.8, 0.83 9.06 C1.1 8.31, 1.45 7.57, 1.84 6.88 C2.24 6.19, 2.71 5.53, 3.22 4.92 C3.73 4.31, 4.31 3.73, 4.92 3.22 C5.53 2.71, 6.19 2.24, 6.88 1.84 C7.57 1.45, 8.31 1.1, 9.06 0.83 C9.8 0.56, 10.59 0.35, 11.37 0.21 C12.16 0.07, 12.97 0, 13.76 0 C14.56 0, 15.37 0.07, 16.15 0.21 C16.94 0.35, 17.72 0.56, 18.47 0.83 C19.22 1.1, 19.95 1.45, 20.64 1.84 C21.33 2.24, 22 2.71, 22.61 3.22 C23.22 3.73, 23.79 4.31, 24.31 4.92 C24.82 5.53, 25.28 6.19, 25.68 6.88 C26.08 7.57, 26.42 8.31, 26.7 9.06 C26.97 9.8, 27.18 10.59, 27.32 11.37 C27.46 12.16, 27.49 13.36, 27.53 13.76 C27.56 14.16, 27.56 13.36, 27.53 13.76" stroke="none" stroke-width="0" fill="#222129"></path><path d="M27.53 13.76 C27.53 14.56, 27.46 15.37, 27.32 16.15 C27.18 16.94, 26.97 17.72, 26.7 18.47 C26.42 19.22, 26.08 19.95, 25.68 20.64 C25.28 21.33, 24.82 22, 24.31 22.61 C23.79 23.22, 23.22 23.79, 22.61 24.31 C22 24.82, 21.33 25.28, 20.64 25.68 C19.95 26.08, 19.22 26.42, 18.47 26.7 C17.72 26.97, 16.94 27.18, 16.15 27.32 C15.37 27.46, 14.56 27.53, 13.76 27.53 C12.97 27.53, 12.16 27.46, 11.37 27.32 C10.59 27.18, 9.8 26.97, 9.06 26.7 C8.31 26.42, 7.57 26.08, 6.88 25.68 C6.19 25.28, 5.53 24.82, 4.92 24.31 C4.31 23.79, 3.73 23.22, 3.22 22.61 C2.71 22, 2.24 21.33, 1.84 20.64 C1.45 19.95, 1.1 19.22, 0.83 18.47 C0.56 17.72, 0.35 16.94, 0.21 16.15 C0.07 15.37, 0 14.56, 0 13.76 C0 12.97, 0.07 12.16, 0.21 11.37 C0.35 10.59, 0.56 9.8, 0.83 9.06 C1.1 8.31, 1.45 7.57, 1.84 6.88 C2.24 6.19, 2.71 5.53, 3.22 4.92 C3.73 4.31, 4.31 3.73, 4.92 3.22 C5.53 2.71, 6.19 2.24, 6.88 1.84 C7.57 1.45, 8.31 1.1, 9.06 0.83 C9.8 0.56, 10.59 0.35, 11.37 0.21 C12.16 0.07, 12.97 0, 13.76 0 C14.56 0, 15.37 0.07, 16.15 0.21 C16.94 0.35, 17.72 0.56, 18.47 0.83 C19.22 1.1, 19.95 1.45, 20.64 1.84 C21.33 2.24, 22 2.71, 22.61 3.22 C23.22 3.73, 23.79 4.31, 24.31 4.92 C24.82 5.53, 25.28 6.19, 25.68 6.88 C26.08 7.57, 26.42 8.31, 26.7 9.06 C26.97 9.8, 27.18 10.59, 27.32 11.37 C27.46 12.16, 27.49 13.36, 27.53 13.76 C27.56 14.16, 27.56 13.36, 27.53 13.76" stroke="#9c36b5" stroke-width="4" fill="none"></path></g><g stroke-linecap="round" transform="translate(10 452.1453676657057) rotate(0 158.2759242381947 107.27140645299625)"><path d="M32 0 L284.55 0 L292.05 0.5 L298.55 2 L304.05 4.5 L308.55 8 L312.05 12.5 L314.55 18 L316.05 24.5 L316.55 32 L316.55 182.54 L316.05 190.04 L314.55 196.54 L312.05 202.04 L308.55 206.54 L304.05 210.04 L298.55 212.54 L292.05 214.04 L284.55 214.54 L32 214.54 L24.5 214.04 L18 212.54 L12.5 210.04 L8 206.54 L4.5 202.04 L2 196.54 L0.5 190.04 L0 182.54 L0.5 24.5 L2 18 L4.5 12.5 L8 8 L12.5 4.5 L18 2 L24.5 0.5 L32 0" stroke="none" stroke-width="0" fill="#222129"></path><path d="M32 0 M32 0 C111.9 0, 191.8 0, 284.55 0 M32 0 C104.57 0, 177.14 0, 284.55 0 M284.55 0 C305.89 0, 316.55 10.67, 316.55 32 M284.55 0 C305.89 0, 316.55 10.67, 316.55 32 M316.55 32 C316.55 69.51, 316.55 107.01, 316.55 182.54 M316.55 32 C316.55 77.34, 316.55 122.67, 316.55 182.54 M316.55 182.54 C316.55 203.88, 305.89 214.54, 284.55 214.54 M316.55 182.54 C316.55 203.88, 305.89 214.54, 284.55 214.54 M284.55 214.54 C210.29 214.54, 136.03 214.54, 32 214.54 M284.55 214.54 C184.47 214.54, 84.39 214.54, 32 214.54 M32 214.54 C10.67 214.54, 0 203.88, 0 182.54 M32 214.54 C10.67 214.54, 0 203.88, 0 182.54 M0 182.54 C0 129.28, 0 76.02, 0 32 M0 182.54 C0 138.95, 0 95.35, 0 32 M0 32 C0 10.67, 10.67 0, 32 0 M0 32 C0 10.67, 10.67 0, 32 0" stroke="#9c36b5" stroke-width="1" fill="none"></path></g><g transform="translate(19.97631721815867 473.93156078393855) rotate(0 70.6500015258789 16.080873192057766)"><text x="0" y="0" font-family="Cascadia, Segoe UI Emoji" font-size="26.801455320096277px" fill="#9c36b5" text-anchor="start" style="white-space: pre;" direction="ltr" dominant-baseline="text-before-edge">Data/crud</text></g><g transform="translate(199.1822074561212 473.407245493107) rotate(0 30.391666412353516 17.783329941812028)"><text x="0" y="0" font-family="Cascadia, Segoe UI Emoji" font-size="14.819441618176688px" fill="#9c36b5" text-anchor="start" style="white-space: pre;" direction="ltr" dominant-baseline="text-before-edge">crud</text><text x="0" y="17.783329941812024" font-family="Cascadia, Segoe UI Emoji" font-size="14.819441618176688px" fill="#9c36b5" text-anchor="start" style="white-space: pre;" direction="ltr" dominant-baseline="text-before-edge">schemas</text></g><g stroke-linecap="round" transform="translate(271.07867046079616 470.10691071975845) rotate(0 20.644685770199374 20.644685770199374)"><path d="M41.29 20.64 C41.29 21.84, 41.18 23.05, 40.98 24.23 C40.77 25.41, 40.45 26.58, 40.04 27.71 C39.64 28.83, 39.12 29.93, 38.52 30.97 C37.93 32, 37.23 33, 36.46 33.91 C35.69 34.83, 34.83 35.69, 33.91 36.46 C33 37.23, 32 37.93, 30.97 38.52 C29.93 39.12, 28.83 39.64, 27.71 40.04 C26.58 40.45, 25.41 40.77, 24.23 40.98 C23.05 41.18, 21.84 41.29, 20.64 41.29 C19.45 41.29, 18.24 41.18, 17.06 40.98 C15.88 40.77, 14.71 40.45, 13.58 40.04 C12.46 39.64, 11.36 39.12, 10.32 38.52 C9.29 37.93, 8.29 37.23, 7.37 36.46 C6.46 35.69, 5.6 34.83, 4.83 33.91 C4.06 33, 3.36 32, 2.77 30.97 C2.17 29.93, 1.65 28.83, 1.25 27.71 C0.84 26.58, 0.52 25.41, 0.31 24.23 C0.11 23.05, 0 21.84, 0 20.64 C0 19.45, 0.11 18.24, 0.31 17.06 C0.52 15.88, 0.84 14.71, 1.25 13.58 C1.65 12.46, 2.17 11.36, 2.77 10.32 C3.36 9.29, 4.06 8.29, 4.83 7.37 C5.6 6.46, 6.46 5.6, 7.37 4.83 C8.29 4.06, 9.29 3.36, 10.32 2.77 C11.36 2.17, 12.46 1.65, 13.58 1.25 C14.71 0.84, 15.88 0.52, 17.06 0.31 C18.24 0.11, 19.45 0, 20.64 0 C21.84 0, 23.05 0.11, 24.23 0.31 C25.41 0.52, 26.58 0.84, 27.71 1.25 C28.83 1.65, 29.93 2.17, 30.97 2.77 C32 3.36, 33 4.06, 33.91 4.83 C34.83 5.6, 35.69 6.46, 36.46 7.37 C37.23 8.29, 37.93 9.29, 38.52 10.32 C39.12 11.36, 39.64 12.46, 40.04 13.58 C40.45 14.71, 40.77 15.88, 40.98 17.06 C41.18 18.24, 41.24 20.05, 41.29 20.64 C41.34 21.24, 41.34 20.05, 41.29 20.64" stroke="none" stroke-width="0" fill="#222129"></path><path d="M41.29 20.64 C41.29 21.84, 41.18 23.05, 40.98 24.23 C40.77 25.41, 40.45 26.58, 40.04 27.71 C39.64 28.83, 39.12 29.93, 38.52 30.97 C37.93 32, 37.23 33, 36.46 33.91 C35.69 34.83, 34.83 35.69, 33.91 36.46 C33 37.23, 32 37.93, 30.97 38.52 C29.93 39.12, 28.83 39.64, 27.71 40.04 C26.58 40.45, 25.41 40.77, 24.23 40.98 C23.05 41.18, 21.84 41.29, 20.64 41.29 C19.45 41.29, 18.24 41.18, 17.06 40.98 C15.88 40.77, 14.71 40.45, 13.58 40.04 C12.46 39.64, 11.36 39.12, 10.32 38.52 C9.29 37.93, 8.29 37.23, 7.37 36.46 C6.46 35.69, 5.6 34.83, 4.83 33.91 C4.06 33, 3.36 32, 2.77 30.97 C2.17 29.93, 1.65 28.83, 1.25 27.71 C0.84 26.58, 0.52 25.41, 0.31 24.23 C0.11 23.05, 0 21.84, 0 20.64 C0 19.45, 0.11 18.24, 0.31 17.06 C0.52 15.88, 0.84 14.71, 1.25 13.58 C1.65 12.46, 2.17 11.36, 2.77 10.32 C3.36 9.29, 4.06 8.29, 4.83 7.37 C5.6 6.46, 6.46 5.6, 7.37 4.83 C8.29 4.06, 9.29 3.36, 10.32 2.77 C11.36 2.17, 12.46 1.65, 13.58 1.25 C14.71 0.84, 15.88 0.52, 17.06 0.31 C18.24 0.11, 19.45 0, 20.64 0 C21.84 0, 23.05 0.11, 24.23 0.31 C25.41 0.52, 26.58 0.84, 27.71 1.25 C28.83 1.65, 29.93 2.17, 30.97 2.77 C32 3.36, 33 4.06, 33.91 4.83 C34.83 5.6, 35.69 6.46, 36.46 7.37 C37.23 8.29, 37.93 9.29, 38.52 10.32 C39.12 11.36, 39.64 12.46, 40.04 13.58 C40.45 14.71, 40.77 15.88, 40.98 17.06 C41.18 18.24, 41.24 20.05, 41.29 20.64 C41.34 21.24, 41.34 20.05, 41.29 20.64" stroke="#9c36b5" stroke-width="4" fill="none"></path></g><g transform="translate(17.029214685972534 562.6038694113063) rotate(0 149.14999389648438 16.080873192057766)"><text x="0" y="0" font-family="Cascadia, Segoe UI Emoji" font-size="26.801455320096277px" fill="#9c36b5" text-anchor="start" style="white-space: pre;" direction="ltr" dominant-baseline="text-before-edge">sqlalchemy_logic( )</text></g><g stroke-linecap="round" transform="translate(332.21728039042887 451.2683528331483) rotate(0 172.74666897539151 107.27140645299625)"><path d="M32 0 L313.49 0 L320.99 0.5 L327.49 2 L332.99 4.5 L337.49 8 L340.99 12.5 L343.49 18 L344.99 24.5 L345.49 32 L345.49 182.54 L344.99 190.04 L343.49 196.54 L340.99 202.04 L337.49 206.54 L332.99 210.04 L327.49 212.54 L320.99 214.04 L313.49 214.54 L32 214.54 L24.5 214.04 L18 212.54 L12.5 210.04 L8 206.54 L4.5 202.04 L2 196.54 L0.5 190.04 L0 182.54 L0.5 24.5 L2 18 L4.5 12.5 L8 8 L12.5 4.5 L18 2 L24.5 0.5 L32 0" stroke="none" stroke-width="0" fill="#222129"></path><path d="M32 0 M32 0 C90.58 0, 149.15 0, 313.49 0 M32 0 C90.73 0, 149.47 0, 313.49 0 M313.49 0 C334.83 0, 345.49 10.67, 345.49 32 M313.49 0 C334.83 0, 345.49 10.67, 345.49 32 M345.49 32 C345.49 73.69, 345.49 115.37, 345.49 182.54 M345.49 32 C345.49 70.45, 345.49 108.9, 345.49 182.54 M345.49 182.54 C345.49 203.88, 334.83 214.54, 313.49 214.54 M345.49 182.54 C345.49 203.88, 334.83 214.54, 313.49 214.54 M313.49 214.54 C214.47 214.54, 115.44 214.54, 32 214.54 M313.49 214.54 C228.32 214.54, 143.15 214.54, 32 214.54 M32 214.54 C10.67 214.54, 0 203.88, 0 182.54 M32 214.54 C10.67 214.54, 0 203.88, 0 182.54 M0 182.54 C0 133.6, 0 84.66, 0 32 M0 182.54 C0 123.54, 0 64.54, 0 32 M0 32 C0 10.67, 10.67 0, 32 0 M0 32 C0 10.67, 10.67 0, 32 0" stroke="#c2255c" stroke-width="1" fill="none"></path></g><g transform="translate(343.0706124411448 473.05454595138116) rotate(0 78.5 16.080873192057766)"><text x="0" y="0" font-family="Cascadia, Segoe UI Emoji" font-size="26.801455320096277px" fill="#c2255c" text-anchor="start" style="white-space: pre;" direction="ltr" dominant-baseline="text-before-edge">API Client</text></g><g transform="translate(515.2603840186484 473.407245493107) rotate(0 43.41666793823242 17.783329941812028)"><text x="0" y="0" font-family="Cascadia, Segoe UI Emoji" font-size="14.819441618176688px" fill="#c2255c" text-anchor="start" style="white-space: pre;" direction="ltr" dominant-baseline="text-before-edge">api client</text><text x="0" y="17.783329941812024" font-family="Cascadia, Segoe UI Emoji" font-size="14.819441618176688px" fill="#c2255c" text-anchor="start" style="white-space: pre;" direction="ltr" dominant-baseline="text-before-edge">schemas</text></g><g transform="translate(350.6476878996474 560.8498397461915) rotate(0 94.19999694824219 16.080873192057766)"><text x="0" y="0" font-family="Cascadia, Segoe UI Emoji" font-size="26.801455320096277px" fill="#c2255c" text-anchor="start" style="white-space: pre;" direction="ltr" dominant-baseline="text-before-edge">api_logic( )</text></g><g stroke-linecap="round" transform="translate(319.05893911613475 329.11434491595423) rotate(0 26.310444976721556 10.962685406967296)"><path d="M52.62 10.96 C52.62 11.6, 52.49 12.24, 52.22 12.87 C51.96 13.49, 51.56 14.12, 51.03 14.71 C50.51 15.31, 49.86 15.89, 49.1 16.44 C48.33 16.99, 47.44 17.52, 46.47 18.01 C45.49 18.5, 44.39 18.95, 43.22 19.36 C42.06 19.77, 40.78 20.14, 39.47 20.46 C38.15 20.77, 36.74 21.05, 35.31 21.26 C33.88 21.48, 32.38 21.65, 30.88 21.76 C29.38 21.87, 27.83 21.93, 26.31 21.93 C24.79 21.93, 23.24 21.87, 21.74 21.76 C20.24 21.65, 18.74 21.48, 17.31 21.26 C15.88 21.05, 14.47 20.77, 13.16 20.46 C11.84 20.14, 10.57 19.77, 9.4 19.36 C8.23 18.95, 7.13 18.5, 6.16 18.01 C5.18 17.52, 4.29 16.99, 3.52 16.44 C2.76 15.89, 2.11 15.31, 1.59 14.71 C1.07 14.12, 0.66 13.49, 0.4 12.87 C0.14 12.24, 0 11.6, 0 10.96 C0 10.33, 0.14 9.68, 0.4 9.06 C0.66 8.43, 1.07 7.81, 1.59 7.21 C2.11 6.62, 2.76 6.03, 3.52 5.48 C4.29 4.93, 5.18 4.4, 6.16 3.92 C7.13 3.43, 8.23 2.97, 9.4 2.56 C10.57 2.16, 11.84 1.79, 13.16 1.47 C14.47 1.15, 15.88 0.88, 17.31 0.66 C18.74 0.44, 20.24 0.28, 21.74 0.17 C23.24 0.06, 24.79 0, 26.31 0 C27.83 0, 29.38 0.06, 30.88 0.17 C32.38 0.28, 33.88 0.44, 35.31 0.66 C36.74 0.88, 38.15 1.15, 39.47 1.47 C40.78 1.79, 42.06 2.16, 43.22 2.56 C44.39 2.97, 45.49 3.43, 46.47 3.92 C47.44 4.4, 48.33 4.93, 49.1 5.48 C49.86 6.03, 50.51 6.62, 51.03 7.21 C51.56 7.81, 51.96 8.43, 52.22 9.06 C52.49 9.68, 52.55 10.65, 52.62 10.96 C52.69 11.28, 52.69 10.65, 52.62 10.96" stroke="none" stroke-width="0" fill="#222129"></path><path d="M52.62 10.96 C52.62 11.6, 52.49 12.24, 52.22 12.87 C51.96 13.49, 51.56 14.12, 51.03 14.71 C50.51 15.31, 49.86 15.89, 49.1 16.44 C48.33 16.99, 47.44 17.52, 46.47 18.01 C45.49 18.5, 44.39 18.95, 43.22 19.36 C42.06 19.77, 40.78 20.14, 39.47 20.46 C38.15 20.77, 36.74 21.05, 35.31 21.26 C33.88 21.48, 32.38 21.65, 30.88 21.76 C29.38 21.87, 27.83 21.93, 26.31 21.93 C24.79 21.93, 23.24 21.87, 21.74 21.76 C20.24 21.65, 18.74 21.48, 17.31 21.26 C15.88 21.05, 14.47 20.77, 13.16 20.46 C11.84 20.14, 10.57 19.77, 9.4 19.36 C8.23 18.95, 7.13 18.5, 6.16 18.01 C5.18 17.52, 4.29 16.99, 3.52 16.44 C2.76 15.89, 2.11 15.31, 1.59 14.71 C1.07 14.12, 0.66 13.49, 0.4 12.87 C0.14 12.24, 0 11.6, 0 10.96 C0 10.33, 0.14 9.68, 0.4 9.06 C0.66 8.43, 1.07 7.81, 1.59 7.21 C2.11 6.62, 2.76 6.03, 3.52 5.48 C4.29 4.93, 5.18 4.4, 6.16 3.92 C7.13 3.43, 8.23 2.97, 9.4 2.56 C10.57 2.16, 11.84 1.79, 13.16 1.47 C14.47 1.15, 15.88 0.88, 17.31 0.66 C18.74 0.44, 20.24 0.28, 21.74 0.17 C23.24 0.06, 24.79 0, 26.31 0 C27.83 0, 29.38 0.06, 30.88 0.17 C32.38 0.28, 33.88 0.44, 35.31 0.66 C36.74 0.88, 38.15 1.15, 39.47 1.47 C40.78 1.79, 42.06 2.16, 43.22 2.56 C44.39 2.97, 45.49 3.43, 46.47 3.92 C47.44 4.4, 48.33 4.93, 49.1 5.48 C49.86 6.03, 50.51 6.62, 51.03 7.21 C51.56 7.81, 51.96 8.43, 52.22 9.06 C52.49 9.68, 52.55 10.65, 52.62 10.96 C52.69 11.28, 52.69 10.65, 52.62 10.96" stroke="#c2255c" stroke-width="4" fill="none"></path></g><g stroke-linecap="round" transform="translate(609.7036855344978 481.1907477902505) rotate(0 26.310444976721556 10.962685406967296)"><path d="M52.62 10.96 C52.62 11.6, 52.49 12.24, 52.22 12.87 C51.96 13.49, 51.56 14.12, 51.03 14.71 C50.51 15.31, 49.86 15.89, 49.1 16.44 C48.33 16.99, 47.44 17.52, 46.47 18.01 C45.49 18.5, 44.39 18.95, 43.22 19.36 C42.06 19.77, 40.78 20.14, 39.47 20.46 C38.15 20.77, 36.74 21.05, 35.31 21.26 C33.88 21.48, 32.38 21.65, 30.88 21.76 C29.38 21.87, 27.83 21.93, 26.31 21.93 C24.79 21.93, 23.24 21.87, 21.74 21.76 C20.24 21.65, 18.74 21.48, 17.31 21.26 C15.88 21.05, 14.47 20.77, 13.16 20.46 C11.84 20.14, 10.57 19.77, 9.4 19.36 C8.23 18.95, 7.13 18.5, 6.16 18.01 C5.18 17.52, 4.29 16.99, 3.52 16.44 C2.76 15.89, 2.11 15.31, 1.59 14.71 C1.07 14.12, 0.66 13.49, 0.4 12.87 C0.14 12.24, 0 11.6, 0 10.96 C0 10.33, 0.14 9.68, 0.4 9.06 C0.66 8.43, 1.07 7.81, 1.59 7.21 C2.11 6.62, 2.76 6.03, 3.52 5.48 C4.29 4.93, 5.18 4.4, 6.16 3.92 C7.13 3.43, 8.23 2.97, 9.4 2.56 C10.57 2.16, 11.84 1.79, 13.16 1.47 C14.47 1.15, 15.88 0.88, 17.31 0.66 C18.74 0.44, 20.24 0.28, 21.74 0.17 C23.24 0.06, 24.79 0, 26.31 0 C27.83 0, 29.38 0.06, 30.88 0.17 C32.38 0.28, 33.88 0.44, 35.31 0.66 C36.74 0.88, 38.15 1.15, 39.47 1.47 C40.78 1.79, 42.06 2.16, 43.22 2.56 C44.39 2.97, 45.49 3.43, 46.47 3.92 C47.44 4.4, 48.33 4.93, 49.1 5.48 C49.86 6.03, 50.51 6.62, 51.03 7.21 C51.56 7.81, 51.96 8.43, 52.22 9.06 C52.49 9.68, 52.55 10.65, 52.62 10.96 C52.69 11.28, 52.69 10.65, 52.62 10.96" stroke="none" stroke-width="0" fill="#222129"></path><path d="M52.62 10.96 C52.62 11.6, 52.49 12.24, 52.22 12.87 C51.96 13.49, 51.56 14.12, 51.03 14.71 C50.51 15.31, 49.86 15.89, 49.1 16.44 C48.33 16.99, 47.44 17.52, 46.47 18.01 C45.49 18.5, 44.39 18.95, 43.22 19.36 C42.06 19.77, 40.78 20.14, 39.47 20.46 C38.15 20.77, 36.74 21.05, 35.31 21.26 C33.88 21.48, 32.38 21.65, 30.88 21.76 C29.38 21.87, 27.83 21.93, 26.31 21.93 C24.79 21.93, 23.24 21.87, 21.74 21.76 C20.24 21.65, 18.74 21.48, 17.31 21.26 C15.88 21.05, 14.47 20.77, 13.16 20.46 C11.84 20.14, 10.57 19.77, 9.4 19.36 C8.23 18.95, 7.13 18.5, 6.16 18.01 C5.18 17.52, 4.29 16.99, 3.52 16.44 C2.76 15.89, 2.11 15.31, 1.59 14.71 C1.07 14.12, 0.66 13.49, 0.4 12.87 C0.14 12.24, 0 11.6, 0 10.96 C0 10.33, 0.14 9.68, 0.4 9.06 C0.66 8.43, 1.07 7.81, 1.59 7.21 C2.11 6.62, 2.76 6.03, 3.52 5.48 C4.29 4.93, 5.18 4.4, 6.16 3.92 C7.13 3.43, 8.23 2.97, 9.4 2.56 C10.57 2.16, 11.84 1.79, 13.16 1.47 C14.47 1.15, 15.88 0.88, 17.31 0.66 C18.74 0.44, 20.24 0.28, 21.74 0.17 C23.24 0.06, 24.79 0, 26.31 0 C27.83 0, 29.38 0.06, 30.88 0.17 C32.38 0.28, 33.88 0.44, 35.31 0.66 C36.74 0.88, 38.15 1.15, 39.47 1.47 C40.78 1.79, 42.06 2.16, 43.22 2.56 C44.39 2.97, 45.49 3.43, 46.47 3.92 C47.44 4.4, 48.33 4.93, 49.1 5.48 C49.86 6.03, 50.51 6.62, 51.03 7.21 C51.56 7.81, 51.96 8.43, 52.22 9.06 C52.49 9.68, 52.55 10.65, 52.62 10.96 C52.69 11.28, 52.69 10.65, 52.62 10.96" stroke="#c2255c" stroke-width="4" fill="none"></path></g><g stroke-linecap="round" transform="translate(339.58311710682335 414.53762051588944) rotate(0 26.310444976721556 10.962685406967296)"><path d="M52.62 10.96 C52.62 11.6, 52.49 12.24, 52.22 12.87 C51.96 13.49, 51.56 14.12, 51.03 14.71 C50.51 15.31, 49.86 15.89, 49.1 16.44 C48.33 16.99, 47.44 17.52, 46.47 18.01 C45.49 18.5, 44.39 18.95, 43.22 19.36 C42.06 19.77, 40.78 20.14, 39.47 20.46 C38.15 20.77, 36.74 21.05, 35.31 21.26 C33.88 21.48, 32.38 21.65, 30.88 21.76 C29.38 21.87, 27.83 21.93, 26.31 21.93 C24.79 21.93, 23.24 21.87, 21.74 21.76 C20.24 21.65, 18.74 21.48, 17.31 21.26 C15.88 21.05, 14.47 20.77, 13.16 20.46 C11.84 20.14, 10.57 19.77, 9.4 19.36 C8.23 18.95, 7.13 18.5, 6.16 18.01 C5.18 17.52, 4.29 16.99, 3.52 16.44 C2.76 15.89, 2.11 15.31, 1.59 14.71 C1.07 14.12, 0.66 13.49, 0.4 12.87 C0.14 12.24, 0 11.6, 0 10.96 C0 10.33, 0.14 9.68, 0.4 9.06 C0.66 8.43, 1.07 7.81, 1.59 7.21 C2.11 6.62, 2.76 6.03, 3.52 5.48 C4.29 4.93, 5.18 4.4, 6.16 3.92 C7.13 3.43, 8.23 2.97, 9.4 2.56 C10.57 2.16, 11.84 1.79, 13.16 1.47 C14.47 1.15, 15.88 0.88, 17.31 0.66 C18.74 0.44, 20.24 0.28, 21.74 0.17 C23.24 0.06, 24.79 0, 26.31 0 C27.83 0, 29.38 0.06, 30.88 0.17 C32.38 0.28, 33.88 0.44, 35.31 0.66 C36.74 0.88, 38.15 1.15, 39.47 1.47 C40.78 1.79, 42.06 2.16, 43.22 2.56 C44.39 2.97, 45.49 3.43, 46.47 3.92 C47.44 4.4, 48.33 4.93, 49.1 5.48 C49.86 6.03, 50.51 6.62, 51.03 7.21 C51.56 7.81, 51.96 8.43, 52.22 9.06 C52.49 9.68, 52.55 10.65, 52.62 10.96 C52.69 11.28, 52.69 10.65, 52.62 10.96" stroke="none" stroke-width="0" fill="#222129"></path><path d="M52.62 10.96 C52.62 11.6, 52.49 12.24, 52.22 12.87 C51.96 13.49, 51.56 14.12, 51.03 14.71 C50.51 15.31, 49.86 15.89, 49.1 16.44 C48.33 16.99, 47.44 17.52, 46.47 18.01 C45.49 18.5, 44.39 18.95, 43.22 19.36 C42.06 19.77, 40.78 20.14, 39.47 20.46 C38.15 20.77, 36.74 21.05, 35.31 21.26 C33.88 21.48, 32.38 21.65, 30.88 21.76 C29.38 21.87, 27.83 21.93, 26.31 21.93 C24.79 21.93, 23.24 21.87, 21.74 21.76 C20.24 21.65, 18.74 21.48, 17.31 21.26 C15.88 21.05, 14.47 20.77, 13.16 20.46 C11.84 20.14, 10.57 19.77, 9.4 19.36 C8.23 18.95, 7.13 18.5, 6.16 18.01 C5.18 17.52, 4.29 16.99, 3.52 16.44 C2.76 15.89, 2.11 15.31, 1.59 14.71 C1.07 14.12, 0.66 13.49, 0.4 12.87 C0.14 12.24, 0 11.6, 0 10.96 C0 10.33, 0.14 9.68, 0.4 9.06 C0.66 8.43, 1.07 7.81, 1.59 7.21 C2.11 6.62, 2.76 6.03, 3.52 5.48 C4.29 4.93, 5.18 4.4, 6.16 3.92 C7.13 3.43, 8.23 2.97, 9.4 2.56 C10.57 2.16, 11.84 1.79, 13.16 1.47 C14.47 1.15, 15.88 0.88, 17.31 0.66 C18.74 0.44, 20.24 0.28, 21.74 0.17 C23.24 0.06, 24.79 0, 26.31 0 C27.83 0, 29.38 0.06, 30.88 0.17 C32.38 0.28, 33.88 0.44, 35.31 0.66 C36.74 0.88, 38.15 1.15, 39.47 1.47 C40.78 1.79, 42.06 2.16, 43.22 2.56 C44.39 2.97, 45.49 3.43, 46.47 3.92 C47.44 4.4, 48.33 4.93, 49.1 5.48 C49.86 6.03, 50.51 6.62, 51.03 7.21 C51.56 7.81, 51.96 8.43, 52.22 9.06 C52.49 9.68, 52.55 10.65, 52.62 10.96 C52.69 11.28, 52.69 10.65, 52.62 10.96" stroke="#c2255c" stroke-width="4" fill="none"></path></g></svg>