<svg version="1.1" xmlns="http://www.w3.org/2000/svg" viewBox="0 0 1271.878665663908 853.2960410626554" width="1271.878665663908" height="853.2960410626554">
  <!-- svg-source:excalidraw -->
  
  <defs>
    <style class="style-fonts">
      @font-face {
        font-family: "Virgil";
        src: url("https://excalidraw.com/Virgil.woff2");
      }
      @font-face {
        font-family: "Cascadia";
        src: url("https://excalidraw.com/Cascadia.woff2");
      }
    </style>
  </defs>
  <rect x="0" y="0" width="1271.878665663908" height="853.2960410626554" fill="#222129"></rect><g transform="translate(587.5636431961348 18.679091190765988) rotate(0 23.433332443237305 12)"><text x="0" y="0" font-family="Cascadia, Segoe UI Emoji" font-size="20px" fill="#e03131" text-anchor="start" style="white-space: pre;" direction="ltr" dominant-baseline="text-before-edge">Host</text></g><g transform="translate(446.70832541755044 208.26875521289003) rotate(0 87.875 84)"><text x="0" y="0" font-family="Cascadia, Segoe UI Emoji" font-size="20px" fill="#9c36b5" text-anchor="start" style="white-space: pre;" direction="ltr" dominant-baseline="text-before-edge">DAP operations:</text><text x="0" y="24" font-family="Cascadia, Segoe UI Emoji" font-size="20px" fill="#9c36b5" text-anchor="start" style="white-space: pre;" direction="ltr" dominant-baseline="text-before-edge"></text><text x="0" y="48" font-family="Cascadia, Segoe UI Emoji" font-size="20px" fill="#9c36b5" text-anchor="start" style="white-space: pre;" direction="ltr" dominant-baseline="text-before-edge">- step over</text><text x="0" y="72" font-family="Cascadia, Segoe UI Emoji" font-size="20px" fill="#9c36b5" text-anchor="start" style="white-space: pre;" direction="ltr" dominant-baseline="text-before-edge">- step into</text><text x="0" y="96" font-family="Cascadia, Segoe UI Emoji" font-size="20px" fill="#9c36b5" text-anchor="start" style="white-space: pre;" direction="ltr" dominant-baseline="text-before-edge">- step out</text><text x="0" y="120" font-family="Cascadia, Segoe UI Emoji" font-size="20px" fill="#9c36b5" text-anchor="start" style="white-space: pre;" direction="ltr" dominant-baseline="text-before-edge">- pause</text><text x="0" y="144" font-family="Cascadia, Segoe UI Emoji" font-size="20px" fill="#9c36b5" text-anchor="start" style="white-space: pre;" direction="ltr" dominant-baseline="text-before-edge">...</text></g><g transform="translate(701.3976862822408 18.679091190765988) rotate(0 52.724998474121094 12)"><text x="0" y="0" font-family="Cascadia, Segoe UI Emoji" font-size="20px" fill="#e03131" text-anchor="start" style="white-space: pre;" direction="ltr" dominant-baseline="text-before-edge">Container</text></g><g transform="translate(32.99166488647461 216.49742897892833) rotate(0 35.150001525878906 12)"><text x="0" y="0" font-family="Cascadia, Segoe UI Emoji" font-size="20px" fill="#f08c00" text-anchor="start" style="white-space: pre;" direction="ltr" dominant-baseline="text-before-edge">VSCode</text></g><g transform="translate(145.9916648864746 283.4248827484876) rotate(0 98.875 229.5362731152204)"><text x="0" y="0" font-family="Cascadia, Segoe UI Emoji" font-size="22.50355618776671px" fill="#ffffff" text-anchor="start" style="white-space: pre;" direction="ltr" dominant-baseline="text-before-edge">► .envs</text><text x="0" y="27.004267425320048" font-family="Cascadia, Segoe UI Emoji" font-size="22.50355618776671px" fill="#ffffff" text-anchor="start" style="white-space: pre;" direction="ltr" dominant-baseline="text-before-edge">► .vscode</text><text x="0" y="54.008534850640096" font-family="Cascadia, Segoe UI Emoji" font-size="22.50355618776671px" fill="#ffffff" text-anchor="start" style="white-space: pre;" direction="ltr" dominant-baseline="text-before-edge">▼ dfa</text><text x="0" y="81.01280227596014" font-family="Cascadia, Segoe UI Emoji" font-size="22.50355618776671px" fill="#ffffff" text-anchor="start" style="white-space: pre;" direction="ltr" dominant-baseline="text-before-edge"> ▼ app</text><text x="0" y="108.01706970128019" font-family="Cascadia, Segoe UI Emoji" font-size="22.50355618776671px" fill="#ffffff" text-anchor="start" style="white-space: pre;" direction="ltr" dominant-baseline="text-before-edge">  ► core</text><text x="0" y="135.02133712660023" font-family="Cascadia, Segoe UI Emoji" font-size="22.50355618776671px" fill="#ffffff" text-anchor="start" style="white-space: pre;" direction="ltr" dominant-baseline="text-before-edge">  ▼ user</text><text x="0" y="162.02560455192028" font-family="Cascadia, Segoe UI Emoji" font-size="22.50355618776671px" fill="#ffffff" text-anchor="start" style="white-space: pre;" direction="ltr" dominant-baseline="text-before-edge">   routes.py</text><text x="0" y="189.02987197724033" font-family="Cascadia, Segoe UI Emoji" font-size="22.50355618776671px" fill="#ffffff" text-anchor="start" style="white-space: pre;" direction="ltr" dominant-baseline="text-before-edge">   schemas.py</text><text x="0" y="216.03413940256038" font-family="Cascadia, Segoe UI Emoji" font-size="22.50355618776671px" fill="#ffffff" text-anchor="start" style="white-space: pre;" direction="ltr" dominant-baseline="text-before-edge">  __init__.py</text><text x="0" y="243.03840682788044" font-family="Cascadia, Segoe UI Emoji" font-size="22.50355618776671px" fill="#ffffff" text-anchor="start" style="white-space: pre;" direction="ltr" dominant-baseline="text-before-edge">  main.py</text><text x="0" y="270.04267425320046" font-family="Cascadia, Segoe UI Emoji" font-size="22.50355618776671px" fill="#ffffff" text-anchor="start" style="white-space: pre;" direction="ltr" dominant-baseline="text-before-edge"> ▼ requirements</text><text x="0" y="297.0469416785205" font-family="Cascadia, Segoe UI Emoji" font-size="22.50355618776671px" fill="#ffffff" text-anchor="start" style="white-space: pre;" direction="ltr" dominant-baseline="text-before-edge"> pyproject.toml</text><text x="0" y="324.05120910384056" font-family="Cascadia, Segoe UI Emoji" font-size="22.50355618776671px" fill="#ffffff" text-anchor="start" style="white-space: pre;" direction="ltr" dominant-baseline="text-before-edge">► docker</text><text x="0" y="351.0554765291606" font-family="Cascadia, Segoe UI Emoji" font-size="22.50355618776671px" fill="#ffffff" text-anchor="start" style="white-space: pre;" direction="ltr" dominant-baseline="text-before-edge">.gitignore</text><text x="0" y="378.05974395448067" font-family="Cascadia, Segoe UI Emoji" font-size="22.50355618776671px" fill="#ffffff" text-anchor="start" style="white-space: pre;" direction="ltr" dominant-baseline="text-before-edge">.python-version</text><text x="0" y="405.0640113798007" font-family="Cascadia, Segoe UI Emoji" font-size="22.50355618776671px" fill="#ffffff" text-anchor="start" style="white-space: pre;" direction="ltr" dominant-baseline="text-before-edge">Makefile</text><text x="0" y="432.06827880512077" font-family="Cascadia, Segoe UI Emoji" font-size="22.50355618776671px" fill="#ffffff" text-anchor="start" style="white-space: pre;" direction="ltr" dominant-baseline="text-before-edge">README.md</text></g><g stroke-linecap="round" transform="translate(10 196.99742897892833) rotate(0 189 297.5)"><path d="M32 0 M32 0 C150.66 0, 269.31 0, 346 0 M32 0 C101.86 0, 171.72 0, 346 0 M346 0 C367.33 0, 378 10.67, 378 32 M346 0 C367.33 0, 378 10.67, 378 32 M378 32 C378 193.58, 378 355.16, 378 563 M378 32 C378 218.9, 378 405.8, 378 563 M378 563 C378 584.33, 367.33 595, 346 595 M378 563 C378 584.33, 367.33 595, 346 595 M346 595 C280.9 595, 215.8 595, 32 595 M346 595 C257.88 595, 169.76 595, 32 595 M32 595 C10.67 595, 0 584.33, 0 563 M32 595 C10.67 595, 0 584.33, 0 563 M0 563 C0 404.39, 0 245.78, 0 32 M0 563 C0 399.35, 0 235.7, 0 32 M0 32 C0 10.67, 10.67 0, 32 0 M0 32 C0 10.67, 10.67 0, 32 0" stroke="#ffffff" stroke-width="4" fill="none"></path></g><g stroke-linecap="round" transform="translate(122 336.9974289789283) rotate(0 117.5 108.5)"><path d="M0 0 C57.3 0, 114.6 0, 235 0 M235 0 C235 71.11, 235 142.21, 235 217 M235 217 C166.39 217, 97.78 217, 0 217 M0 217 C0 154.34, 0 91.67, 0 0" stroke="#a5d8ff" stroke-width="1.5" fill="none" stroke-dasharray="8 9"></path></g><g transform="translate(847.6203305503825 262.87635561758015) rotate(0 117.16666412353516 12)"><text x="0" y="0" font-family="Cascadia, Segoe UI Emoji" font-size="20px" fill="#2f9e44" text-anchor="start" style="white-space: pre;" direction="ltr" dominant-baseline="text-before-edge">debugpy [port: 5678]</text></g><g transform="translate(969.8703305503825 342.37635561758015) rotate(0 41.00833511352539 12)"><text x="0" y="0" font-family="Cascadia, Segoe UI Emoji" font-size="20px" fill="#e8590c" text-anchor="start" style="white-space: pre;" direction="ltr" dominant-baseline="text-before-edge">uvicorn</text></g><g transform="translate(1000.8703305503825 409.30380938713944) rotate(0 85.69166564941406 108.0170697012802)"><text x="0" y="0" font-family="Cascadia, Segoe UI Emoji" font-size="22.50355618776671px" fill="#ffffff" text-anchor="start" style="white-space: pre;" direction="ltr" dominant-baseline="text-before-edge">▼ dfa</text><text x="0" y="27.004267425320048" font-family="Cascadia, Segoe UI Emoji" font-size="22.50355618776671px" fill="#ffffff" text-anchor="start" style="white-space: pre;" direction="ltr" dominant-baseline="text-before-edge"> ▼ app</text><text x="0" y="54.008534850640096" font-family="Cascadia, Segoe UI Emoji" font-size="22.50355618776671px" fill="#ffffff" text-anchor="start" style="white-space: pre;" direction="ltr" dominant-baseline="text-before-edge">  ► core</text><text x="0" y="81.01280227596014" font-family="Cascadia, Segoe UI Emoji" font-size="22.50355618776671px" fill="#ffffff" text-anchor="start" style="white-space: pre;" direction="ltr" dominant-baseline="text-before-edge">  ▼ user</text><text x="0" y="108.01706970128019" font-family="Cascadia, Segoe UI Emoji" font-size="22.50355618776671px" fill="#ffffff" text-anchor="start" style="white-space: pre;" direction="ltr" dominant-baseline="text-before-edge">   routes.py</text><text x="0" y="135.02133712660023" font-family="Cascadia, Segoe UI Emoji" font-size="22.50355618776671px" fill="#ffffff" text-anchor="start" style="white-space: pre;" direction="ltr" dominant-baseline="text-before-edge">   schemas.py</text><text x="0" y="162.02560455192028" font-family="Cascadia, Segoe UI Emoji" font-size="22.50355618776671px" fill="#ffffff" text-anchor="start" style="white-space: pre;" direction="ltr" dominant-baseline="text-before-edge">  __init__.py</text><text x="0" y="189.02987197724033" font-family="Cascadia, Segoe UI Emoji" font-size="22.50355618776671px" fill="#ffffff" text-anchor="start" style="white-space: pre;" direction="ltr" dominant-baseline="text-before-edge">  main.py</text></g><g stroke-linecap="round" transform="translate(820.8786656639079 239.62635561758015) rotate(0 220.5 250)"><path d="M32 0 M32 0 C109.1 0, 186.2 0, 409 0 M32 0 C170.34 0, 308.68 0, 409 0 M409 0 C430.33 0, 441 10.67, 441 32 M409 0 C430.33 0, 441 10.67, 441 32 M441 32 C441 164.13, 441 296.26, 441 468 M441 32 C441 146.11, 441 260.21, 441 468 M441 468 C441 489.33, 430.33 500, 409 500 M441 468 C441 489.33, 430.33 500, 409 500 M409 500 C290.99 500, 172.98 500, 32 500 M409 500 C295.06 500, 181.11 500, 32 500 M32 500 C10.67 500, 0 489.33, 0 468 M32 500 C10.67 500, 0 489.33, 0 468 M0 468 C0 334.86, 0 201.72, 0 32 M0 468 C0 349.86, 0 231.71, 0 32 M0 32 C0 10.67, 10.67 0, 32 0 M0 32 C0 10.67, 10.67 0, 32 0" stroke="#ffffff" stroke-width="4" fill="none"></path></g><g stroke-linecap="round" transform="translate(940.8786656639079 319.87635561758015) rotate(0 127.5 185.5)"><path d="M32 0 M32 0 C92 0, 151.99 0, 223 0 M32 0 C73.25 0, 114.49 0, 223 0 M223 0 C244.33 0, 255 10.67, 255 32 M223 0 C244.33 0, 255 10.67, 255 32 M255 32 C255 98.7, 255 165.39, 255 339 M255 32 C255 125.1, 255 218.2, 255 339 M255 339 C255 360.33, 244.33 371, 223 371 M255 339 C255 360.33, 244.33 371, 223 371 M223 371 C160.46 371, 97.92 371, 32 371 M223 371 C174.01 371, 125.03 371, 32 371 M32 371 C10.67 371, 0 360.33, 0 339 M32 371 C10.67 371, 0 360.33, 0 339 M0 339 C0 244.34, 0 149.68, 0 32 M0 339 C0 268.12, 0 197.25, 0 32 M0 32 C0 10.67, 10.67 0, 32 0 M0 32 C0 10.67, 10.67 0, 32 0" stroke="#ffffff" stroke-width="4" fill="none"></path></g><g stroke-linecap="round" transform="translate(975.8786656639079 408.87635561758015) rotate(0 103 108.5)"><path d="M0 0 C73.39 0, 146.78 0, 206 0 M206 0 C206 75.61, 206 151.23, 206 217 M206 217 C148.34 217, 90.69 217, 0 217 M0 217 C0 160.22, 0 103.43, 0 0" stroke="#a5d8ff" stroke-width="1.5" fill="none" stroke-dasharray="8 9"></path></g><g stroke-linecap="round"><g transform="translate(669.6403676393062 10) rotate(0 0 416.6480205313277)"><path d="M0 0 C0 319.51, 0 639.02, 0 833.3" stroke="#e03131" stroke-width="1.5" fill="none" stroke-dasharray="8 9"></path></g></g><mask></mask><g stroke-linecap="round"><g transform="translate(458.752323762204 74.02178257376093) rotate(326.3099324740202 155.6717736601522 139.39941765473446)"><path d="M0 0 C59.24 32.02, 118.48 64.04, 233.68 126.3 M0 0 C93.01 50.27, 186.03 100.55, 233.68 126.3 M233.68 126.3 C261.48 180.88, 289.27 235.46, 311.34 278.8 M233.68 126.3 C252.43 163.12, 271.18 199.93, 311.34 278.8" stroke="#9c36b5" stroke-width="4" fill="none"></path></g><g transform="translate(458.752323762204 74.02178257376093) rotate(326.3099324740202 155.6717736601522 139.39941765473446)"><path d="M289.41 258.33 C294.97 263.52, 300.53 268.71, 311.34 278.8 M289.41 258.33 C298.14 266.48, 306.87 274.63, 311.34 278.8" stroke="#9c36b5" stroke-width="4" fill="none"></path></g><g transform="translate(458.752323762204 74.02178257376093) rotate(326.3099324740202 155.6717736601522 139.39941765473446)"><path d="M307.69 249.02 C308.62 256.57, 309.54 264.12, 311.34 278.8 M307.69 249.02 C309.15 260.87, 310.6 272.73, 311.34 278.8" stroke="#9c36b5" stroke-width="4" fill="none"></path></g></g><mask></mask></svg>