<svg version="1.1" xmlns="http://www.w3.org/2000/svg" viewBox="0 0 682 404.5" width="682" height="404.5">
  <!-- svg-source:excalidraw -->
  
  <defs>
    <style class="style-fonts">
      @font-face {
        font-family: "Virgil";
        src: url("https://excalidraw.com/Virgil.woff2");
      }
      @font-face {
        font-family: "Cascadia";
        src: url("https://excalidraw.com/Cascadia.woff2");
      }
    </style>
  </defs>
  <rect x="0" y="0" width="682" height="404.5" fill="#222129"></rect><g stroke-linecap="round" transform="translate(179.5 109.5) rotate(0 161.5 36.5)"><path d="M18.25 0 M18.25 0 C98.26 0, 178.27 0, 304.75 0 M18.25 0 C116.42 0, 214.59 0, 304.75 0 M304.75 0 C316.92 0, 323 6.08, 323 18.25 M304.75 0 C316.92 0, 323 6.08, 323 18.25 M323 18.25 C323 30.64, 323 43.03, 323 54.75 M323 18.25 C323 27.29, 323 36.33, 323 54.75 M323 54.75 C323 66.92, 316.92 73, 304.75 73 M323 54.75 C323 66.92, 316.92 73, 304.75 73 M304.75 73 C193.33 73, 81.91 73, 18.25 73 M304.75 73 C215.66 73, 126.56 73, 18.25 73 M18.25 73 C6.08 73, 0 66.92, 0 54.75 M18.25 73 C6.08 73, 0 66.92, 0 54.75 M0 54.75 C0 46.2, 0 37.64, 0 18.25 M0 54.75 C0 42.22, 0 29.69, 0 18.25 M0 18.25 C0 6.08, 6.08 0, 18.25 0 M0 18.25 C0 6.08, 6.08 0, 18.25 0" stroke="#ffffff" stroke-width="4" fill="none"></path></g><g transform="translate(299.9916648864746 134) rotate(0 41.00833511352539 12)"><text x="0" y="0" font-family="Cascadia, Segoe UI Emoji" font-size="20px" fill="#ffffff" text-anchor="start" style="white-space: pre;" direction="ltr" dominant-baseline="text-before-edge">Routing</text></g><g stroke-linecap="round" transform="translate(179.5 214.5) rotate(0 161.5 36.5)"><path d="M18.25 0 M18.25 0 C98.75 0, 179.26 0, 304.75 0 M18.25 0 C100.14 0, 182.02 0, 304.75 0 M304.75 0 C316.92 0, 323 6.08, 323 18.25 M304.75 0 C316.92 0, 323 6.08, 323 18.25 M323 18.25 C323 27.93, 323 37.6, 323 54.75 M323 18.25 C323 26.34, 323 34.44, 323 54.75 M323 54.75 C323 66.92, 316.92 73, 304.75 73 M323 54.75 C323 66.92, 316.92 73, 304.75 73 M304.75 73 C225.12 73, 145.5 73, 18.25 73 M304.75 73 C191.12 73, 77.5 73, 18.25 73 M18.25 73 C6.08 73, 0 66.92, 0 54.75 M18.25 73 C6.08 73, 0 66.92, 0 54.75 M0 54.75 C0 40.96, 0 27.18, 0 18.25 M0 54.75 C0 44.13, 0 33.5, 0 18.25 M0 18.25 C0 6.08, 6.08 0, 18.25 0 M0 18.25 C0 6.08, 6.08 0, 18.25 0" stroke="#ffffff" stroke-width="4" fill="none"></path></g><g transform="translate(299.9916648864746 239) rotate(0 46.86666488647461 12)"><text x="0" y="0" font-family="Cascadia, Segoe UI Emoji" font-size="20px" fill="#ffffff" text-anchor="start" style="white-space: pre;" direction="ltr" dominant-baseline="text-before-edge">Services</text></g><g stroke-linecap="round" transform="translate(10 321.5) rotate(0 161.5 36.5)"><path d="M18.25 0 M18.25 0 C129.69 0, 241.13 0, 304.75 0 M18.25 0 C115.59 0, 212.93 0, 304.75 0 M304.75 0 C316.92 0, 323 6.08, 323 18.25 M304.75 0 C316.92 0, 323 6.08, 323 18.25 M323 18.25 C323 32.69, 323 47.14, 323 54.75 M323 18.25 C323 29.53, 323 40.82, 323 54.75 M323 54.75 C323 66.92, 316.92 73, 304.75 73 M323 54.75 C323 66.92, 316.92 73, 304.75 73 M304.75 73 C197.39 73, 90.03 73, 18.25 73 M304.75 73 C228.34 73, 151.93 73, 18.25 73 M18.25 73 C6.08 73, 0 66.92, 0 54.75 M18.25 73 C6.08 73, 0 66.92, 0 54.75 M0 54.75 C0 44.53, 0 34.3, 0 18.25 M0 54.75 C0 46, 0 37.25, 0 18.25 M0 18.25 C0 6.08, 6.08 0, 18.25 0 M0 18.25 C0 6.08, 6.08 0, 18.25 0" stroke="#ffffff" stroke-width="4" fill="none"></path></g><g transform="translate(124.63333511352539 346) rotate(0 46.86666488647461 12)"><text x="0" y="0" font-family="Cascadia, Segoe UI Emoji" font-size="20px" fill="#ffffff" text-anchor="start" style="white-space: pre;" direction="ltr" dominant-baseline="text-before-edge">Database</text></g><g stroke-linecap="round" transform="translate(349 321.5) rotate(0 161.5 36.5)"><path d="M18.25 0 M18.25 0 C85.14 0, 152.02 0, 304.75 0 M18.25 0 C83.01 0, 147.78 0, 304.75 0 M304.75 0 C316.92 0, 323 6.08, 323 18.25 M304.75 0 C316.92 0, 323 6.08, 323 18.25 M323 18.25 C323 30.69, 323 43.13, 323 54.75 M323 18.25 C323 32.29, 323 46.34, 323 54.75 M323 54.75 C323 66.92, 316.92 73, 304.75 73 M323 54.75 C323 66.92, 316.92 73, 304.75 73 M304.75 73 C195.72 73, 86.69 73, 18.25 73 M304.75 73 C191.9 73, 79.04 73, 18.25 73 M18.25 73 C6.08 73, 0 66.92, 0 54.75 M18.25 73 C6.08 73, 0 66.92, 0 54.75 M0 54.75 C0 43.45, 0 32.15, 0 18.25 M0 54.75 C0 47.18, 0 39.61, 0 18.25 M0 18.25 C0 6.08, 6.08 0, 18.25 0 M0 18.25 C0 6.08, 6.08 0, 18.25 0" stroke="#ffffff" stroke-width="4" fill="none"></path></g><g transform="translate(440.1999969482422 346) rotate(0 70.30000305175781 12)"><text x="0" y="0" font-family="Cascadia, Segoe UI Emoji" font-size="20px" fill="#ffffff" text-anchor="start" style="white-space: pre;" direction="ltr" dominant-baseline="text-before-edge">External API</text></g><g transform="translate(194.9916648864746 10) rotate(0 41.00833511352539 12)"><text x="0" y="0" font-family="Cascadia, Segoe UI Emoji" font-size="20px" fill="#ffffff" text-anchor="start" style="white-space: pre;" direction="ltr" dominant-baseline="text-before-edge">Request</text></g><g transform="translate(395.9916648864746 10) rotate(0 46.86666488647461 12)"><text x="0" y="0" font-family="Cascadia, Segoe UI Emoji" font-size="20px" fill="#ffffff" text-anchor="start" style="white-space: pre;" direction="ltr" dominant-baseline="text-before-edge">Response</text></g><g stroke-linecap="round"><g transform="translate(215 40.5) rotate(0 -2.526711999789029 25.5)"><path d="M0 0 C-1.67 4.17, -10.83 16.5, -10 25 C-9.17 33.5, 2.5 46.67, 5 51 M0 0 C-1.67 4.17, -10.83 16.5, -10 25 C-9.17 33.5, 2.5 46.67, 5 51" stroke="#ffffff" stroke-width="4" fill="none"></path></g><g transform="translate(215 40.5) rotate(0 -2.526711999789029 25.5)"><path d="M-7.33 42.45 C-2.49 45.81, 2.36 49.17, 5 51 M-7.33 42.45 C-3.46 45.13, 0.4 47.81, 5 51" stroke="#ffffff" stroke-width="4" fill="none"></path></g><g transform="translate(215 40.5) rotate(0 -2.526711999789029 25.5)"><path d="M1.05 36.52 C2.6 42.21, 4.15 47.9, 5 51 M1.05 36.52 C2.29 41.06, 3.53 45.6, 5 51" stroke="#ffffff" stroke-width="4" fill="none"></path></g></g><mask></mask><g stroke-linecap="round"><g transform="translate(476.38667268627285 42.5) rotate(180 -1.2200483429253381 25.5)"><path d="M0 0 C-1.67 4.17, -11.28 16.5, -10 25 C-8.72 33.5, 4.73 46.67, 7.68 51 M0 0 C-1.67 4.17, -11.28 16.5, -10 25 C-8.72 33.5, 4.73 46.67, 7.68 51" stroke="#ffffff" stroke-width="4" fill="none"></path></g><g transform="translate(476.38667268627285 42.5) rotate(180 -1.2200483429253381 25.5)"><path d="M-5.86 43.01 C-2 45.29, 1.86 47.57, 7.68 51 M-5.86 43.01 C-3.03 44.69, -0.2 46.36, 7.68 51" stroke="#ffffff" stroke-width="4" fill="none"></path></g><g transform="translate(476.38667268627285 42.5) rotate(180 -1.2200483429253381 25.5)"><path d="M2.44 36.18 C3.93 40.41, 5.43 44.64, 7.68 51 M2.44 36.18 C3.53 39.28, 4.63 42.38, 7.68 51" stroke="#ffffff" stroke-width="4" fill="none"></path></g></g><mask></mask></svg>