<svg version="1.1" xmlns="http://www.w3.org/2000/svg" viewBox="0 0 402.1451000875679 336.1564720454976" width="402.1451000875679" height="336.1564720454976">
  <!-- svg-source:excalidraw -->
  
  <defs>
    <style class="style-fonts">
      @font-face {
        font-family: "Virgil";
        src: url("https://excalidraw.com/Virgil.woff2");
      }
      @font-face {
        font-family: "Cascadia";
        src: url("https://excalidraw.com/Cascadia.woff2");
      }
    </style>
  </defs>
  <rect x="0" y="0" width="402.1451000875679" height="336.1564720454976" fill="#ffffff"></rect><g stroke-linecap="round" transform="translate(74.24378197348426 114.1416240587705) rotate(0 119.26051188299834 32.17372835788797)"><path d="M16.09 0 M16.09 0 C84.68 0, 153.27 0, 222.43 0 M16.09 0 C76.25 0, 136.4 0, 222.43 0 M222.43 0 C233.16 0, 238.52 5.36, 238.52 16.09 M222.43 0 C233.16 0, 238.52 5.36, 238.52 16.09 M238.52 16.09 C238.52 28.46, 238.52 40.84, 238.52 48.26 M238.52 16.09 C238.52 25.65, 238.52 35.21, 238.52 48.26 M238.52 48.26 C238.52 58.99, 233.16 64.35, 222.43 64.35 M238.52 48.26 C238.52 58.99, 233.16 64.35, 222.43 64.35 M222.43 64.35 C166.42 64.35, 110.4 64.35, 16.09 64.35 M222.43 64.35 C159.39 64.35, 96.34 64.35, 16.09 64.35 M16.09 64.35 C5.36 64.35, 0 58.99, 0 48.26 M16.09 64.35 C5.36 64.35, 0 58.99, 0 48.26 M0 48.26 C0 38.23, 0 28.2, 0 16.09 M0 48.26 C0 41.24, 0 34.22, 0 16.09 M0 16.09 C0 5.36, 5.36 0, 16.09 0 M0 16.09 C0 5.36, 5.36 0, 16.09 0" stroke="#1e1e1e" stroke-width="4" fill="none"></path></g><g transform="translate(152.25418562163702 131.8008884958067) rotate(0 41.2492991196288 14.514463920851767)"><text x="0" y="0" font-family="Virgil, Segoe UI Emoji" font-size="23.22314227336276px" fill="#1e1e1e" text-anchor="start" style="white-space: pre;" direction="ltr" dominant-baseline="text-before-edge">Routing</text></g><g stroke-linecap="round" transform="translate(42.83033505906951 187.43966685907162) rotate(0 157.96574900526969 32.17372835788797)"><path d="M16.09 0 M16.09 0 C97.17 0, 178.26 0, 299.84 0 M16.09 0 C127.73 0, 239.37 0, 299.84 0 M299.84 0 C310.57 0, 315.93 5.36, 315.93 16.09 M299.84 0 C310.57 0, 315.93 5.36, 315.93 16.09 M315.93 16.09 C315.93 27.38, 315.93 38.68, 315.93 48.26 M315.93 16.09 C315.93 22.86, 315.93 29.63, 315.93 48.26 M315.93 48.26 C315.93 58.99, 310.57 64.35, 299.84 64.35 M315.93 48.26 C315.93 58.99, 310.57 64.35, 299.84 64.35 M299.84 64.35 C212.96 64.35, 126.07 64.35, 16.09 64.35 M299.84 64.35 C232.18 64.35, 164.51 64.35, 16.09 64.35 M16.09 64.35 C5.36 64.35, 0 58.99, 0 48.26 M16.09 64.35 C5.36 64.35, 0 58.99, 0 48.26 M0 48.26 C0 40.93, 0 33.59, 0 16.09 M0 48.26 C0 39.4, 0 30.55, 0 16.09 M0 16.09 C0 5.36, 5.36 0, 16.09 0 M0 16.09 C0 5.36, 5.36 0, 16.09 0" stroke="#1e1e1e" stroke-width="4" fill="none"></path></g><g transform="translate(155.29323819598142 204.4077663474959) rotate(0 45.50284586835778 14.514463920851767)"><text x="0" y="0" font-family="Virgil, Segoe UI Emoji" font-size="23.22314227336276px" fill="#1e1e1e" text-anchor="start" style="white-space: pre;" direction="ltr" dominant-baseline="text-before-edge">Services</text></g><g stroke-linecap="round" transform="translate(10 261.80901532972166) rotate(0 87.81250672115294 32.17372835788797)"><path d="M16.09 0 M16.09 0 C73.18 0, 130.27 0, 159.54 0 M16.09 0 C64.36 0, 112.63 0, 159.54 0 M159.54 0 C170.26 0, 175.63 5.36, 175.63 16.09 M159.54 0 C170.26 0, 175.63 5.36, 175.63 16.09 M175.63 16.09 C175.63 25.13, 175.63 34.16, 175.63 48.26 M175.63 16.09 C175.63 27.07, 175.63 38.05, 175.63 48.26 M175.63 48.26 C175.63 58.99, 170.26 64.35, 159.54 64.35 M175.63 48.26 C175.63 58.99, 170.26 64.35, 159.54 64.35 M159.54 64.35 C119.55 64.35, 79.56 64.35, 16.09 64.35 M159.54 64.35 C113.92 64.35, 68.3 64.35, 16.09 64.35 M16.09 64.35 C5.36 64.35, 0 58.99, 0 48.26 M16.09 64.35 C5.36 64.35, 0 58.99, 0 48.26 M0 48.26 C0 36.45, 0 24.64, 0 16.09 M0 48.26 C0 40.16, 0 32.05, 0 16.09 M0 16.09 C0 5.36, 5.36 0, 16.09 0 M0 16.09 C0 5.36, 5.36 0, 16.09 0" stroke="#1e1e1e" stroke-width="4" fill="none"></path></g><g transform="translate(40.203908254343844 278.1205081169644) rotate(0 57.40470554521241 14.514463920851767)"><text x="0" y="0" font-family="Virgil, Segoe UI Emoji" font-size="23.22314227336276px" fill="#1e1e1e" text-anchor="start" style="white-space: pre;" direction="ltr" dominant-baseline="text-before-edge">Database</text></g><g stroke-linecap="round" transform="translate(219.97591138832195 261.80901532972166) rotate(0 86.08459434962299 32.17372835788797)"><path d="M16.09 0 M16.09 0 C55.56 0, 95.02 0, 156.08 0 M16.09 0 C53.46 0, 90.84 0, 156.08 0 M156.08 0 C166.81 0, 172.17 5.36, 172.17 16.09 M156.08 0 C166.81 0, 172.17 5.36, 172.17 16.09 M172.17 16.09 C172.17 22.7, 172.17 29.31, 172.17 48.26 M172.17 16.09 C172.17 27.52, 172.17 38.96, 172.17 48.26 M172.17 48.26 C172.17 58.99, 166.81 64.35, 156.08 64.35 M172.17 48.26 C172.17 58.99, 166.81 64.35, 156.08 64.35 M156.08 64.35 C105.01 64.35, 53.94 64.35, 16.09 64.35 M156.08 64.35 C107.8 64.35, 59.53 64.35, 16.09 64.35 M16.09 64.35 C5.36 64.35, 0 58.99, 0 48.26 M16.09 64.35 C5.36 64.35, 0 58.99, 0 48.26 M0 48.26 C0 40.98, 0 33.7, 0 16.09 M0 48.26 C0 39.92, 0 31.58, 0 16.09 M0 16.09 C0 5.36, 5.36 0, 16.09 0 M0 16.09 C0 5.36, 5.36 0, 16.09 0" stroke="#1e1e1e" stroke-width="4" fill="none"></path></g><g transform="translate(240.91878727070582 279.46827976675786) rotate(0 65.14171846723912 14.514463920851767)"><text x="0" y="0" font-family="Virgil, Segoe UI Emoji" font-size="23.223142273362757px" fill="#1e1e1e" text-anchor="start" style="white-space: pre;" direction="ltr" dominant-baseline="text-before-edge">API Clients</text></g><g transform="translate(99.88503029683682 11.952788806334183) rotate(0 39.94166564941406 12.5)"><text x="0" y="0" font-family="Virgil, Segoe UI Emoji" font-size="20px" fill="#1e1e1e" text-anchor="start" style="white-space: pre;" direction="ltr" dominant-baseline="text-before-edge">Request</text></g><g transform="translate(216.22363416008682 10) rotate(0 43.724998474121094 12.5)"><text x="0" y="0" font-family="Virgil, Segoe UI Emoji" font-size="20px" fill="#1e1e1e" text-anchor="start" style="white-space: pre;" direction="ltr" dominant-baseline="text-before-edge">Response</text></g><g stroke-linecap="round"><g transform="translate(140.43355165768332 45.33816443782007) rotate(0 8.514394633481146 30.08805458146219)"><path d="M0 0 C0 5.67, -3.07 23.99, 0 34.01 C3.07 44.04, 15.33 55.82, 18.39 60.18 M0 0 C0 5.67, -3.07 23.99, 0 34.01 C3.07 44.04, 15.33 55.82, 18.39 60.18" stroke="#1e1e1e" stroke-width="4" fill="none"></path></g><g transform="translate(140.43355165768332 45.33816443782007) rotate(0 8.514394633481146 30.08805458146219)"><path d="M4.56 52.15 C7.51 53.86, 10.45 55.57, 18.39 60.18 M4.56 52.15 C9.6 55.08, 14.65 58, 18.39 60.18" stroke="#1e1e1e" stroke-width="4" fill="none"></path></g><g transform="translate(140.43355165768332 45.33816443782007) rotate(0 8.514394633481146 30.08805458146219)"><path d="M12.95 45.14 C14.11 48.34, 15.27 51.54, 18.39 60.18 M12.95 45.14 C14.94 50.62, 16.92 56.1, 18.39 60.18" stroke="#1e1e1e" stroke-width="4" fill="none"></path></g></g><mask></mask><g stroke-linecap="round"><g transform="translate(236.16389895828786 43.79754076273912) rotate(205.36079268045808 8.514394633481174 30.08805458146219)"><path d="M0 0 C0 5.67, -3.07 23.99, 0 34.01 C3.07 44.04, 15.33 55.82, 18.39 60.18 M0 0 C0 5.67, -3.07 23.99, 0 34.01 C3.07 44.04, 15.33 55.82, 18.39 60.18" stroke="#1e1e1e" stroke-width="4" fill="none"></path></g><g transform="translate(236.16389895828786 43.79754076273912) rotate(205.36079268045808 8.514394633481174 30.08805458146219)"><path d="M4.56 52.15 C8.13 54.22, 11.7 56.29, 18.39 60.18 M4.56 52.15 C10.04 55.33, 15.52 58.51, 18.39 60.18" stroke="#1e1e1e" stroke-width="4" fill="none"></path></g><g transform="translate(236.16389895828786 43.79754076273912) rotate(205.36079268045808 8.514394633481174 30.08805458146219)"><path d="M12.95 45.14 C14.36 49.02, 15.76 52.9, 18.39 60.18 M12.95 45.14 C15.11 51.1, 17.26 57.05, 18.39 60.18" stroke="#1e1e1e" stroke-width="4" fill="none"></path></g></g><mask></mask></svg>